<svg width="31" height="35" viewBox="0 0 31 35" fill="none" xmlns="http://www.w3.org/2000/svg">
<path d="M17.1885 3.32377C17.3326 3.02801 17.4047 2.69 17.4047 2.36607C17.4047 1.05628 16.3237 0 14.9833 0C13.643 0 12.562 1.05628 12.562 2.36607C12.562 2.78859 12.6773 3.19702 12.8935 3.54911L14.7672 7.16864C14.8248 7.28131 14.9689 7.32356 15.0842 7.26723C15.1275 7.23906 15.1707 7.2109 15.1851 7.16864L17.0732 3.52095C17.1164 3.46461 17.1597 3.39419 17.1885 3.32377ZM12.7782 12.8162C12.2305 14.0134 12.7782 15.4077 14.0033 15.9288C15.2284 16.4639 16.6552 15.9288 17.1885 14.7316C17.5056 14.0415 17.4623 13.2388 17.0732 12.5909L15.1995 8.97137C15.1419 8.8587 14.9978 8.81645 14.8825 8.87278C14.8392 8.90095 14.796 8.92912 14.7816 8.97137L12.8935 12.6191C12.8503 12.6895 12.8214 12.7458 12.7782 12.8162ZM9.67945 8.57702C8.35348 8.71786 7.38782 9.87273 7.51754 11.1684C7.66167 12.4641 8.84352 13.4078 10.1695 13.281C10.501 13.2528 10.8325 13.1402 11.1351 12.9712C11.5099 12.7599 11.8125 12.4641 12.0143 12.1121L14.2771 8.71786C14.3492 8.60519 14.3204 8.46435 14.2051 8.39393C14.1618 8.36576 14.1186 8.35168 14.0609 8.35168L9.88123 8.57702C9.82358 8.56294 9.75152 8.56294 9.67945 8.57702ZM20.3017 7.56299C21.6276 7.43623 22.5933 6.26728 22.4636 4.97157C22.3339 3.67587 21.1376 2.73225 19.8116 2.85901C19.0333 2.94351 18.3559 3.36602 17.9668 4.02796L15.704 7.42215C15.6319 7.53482 15.6607 7.67566 15.776 7.74608C15.8193 7.77425 15.8625 7.78833 15.9202 7.78833L20.0999 7.57707C20.1575 7.57707 20.2296 7.57707 20.3017 7.56299ZM18.0965 12.3092C18.8892 13.3655 20.3881 13.5908 21.4691 12.8303C22.55 12.0557 22.7807 10.591 22.0024 9.53472C21.8006 9.26713 21.5556 9.04178 21.2673 8.88686C20.907 8.67561 20.489 8.56294 20.0566 8.57702L15.9058 8.36577C15.7761 8.36577 15.6607 8.46435 15.6607 8.59111C15.6607 8.63336 15.6752 8.68969 15.704 8.73195L17.9812 12.1543C18.01 12.1966 18.0389 12.2529 18.0965 12.3092ZM11.8846 3.83079C11.1063 2.7745 9.59298 2.53508 8.51202 3.30969C7.43106 4.07021 7.18605 5.54901 7.97875 6.60529C8.43996 7.22498 9.16059 7.57707 9.93888 7.57707L14.0753 7.78833C14.2051 7.78833 14.3204 7.68974 14.3204 7.56299C14.3204 7.52074 14.306 7.4644 14.2771 7.42215L11.9999 3.99979C11.9711 3.95754 11.9278 3.90121 11.8846 3.83079Z" fill="#0057B8"/>
<path d="M6.88427 14.9446C10.8334 14.7615 14.1916 17.7332 14.3789 21.5922V21.6344C14.3933 21.8316 14.3645 34.2816 14.3645 34.2816C14.3645 34.4366 14.3213 34.5774 14.2348 34.6901C14.0042 34.9858 13.5718 35.0563 13.2547 34.8309L3.32434 27.789C1.39303 26.5637 0.196757 24.5075 0.0814553 22.2682C-0.105911 18.4092 2.93517 15.1277 6.88427 14.9446Z" fill="#00AC4A"/>
<path d="M23.2572 14.9446C19.3081 14.7615 15.9499 17.7332 15.7625 21.5922V21.6344C15.7481 21.8316 15.777 34.2816 15.777 34.2816C15.777 34.4366 15.8202 34.5774 15.9067 34.6901C16.1373 34.9858 16.5697 35.0563 16.8867 34.8309L26.8171 27.789C28.7485 26.5637 29.9447 24.5075 30.06 22.2682C30.2474 18.4092 27.2063 15.1277 23.2572 14.9446Z" fill="#00AC4A"/>
<path d="M27.581 33.4085V33.0986H25.9524V33.4085H26.5721V34.9999H26.9613V33.4085H27.581Z" fill="#00AC4A"/>
<path d="M29.6132 33.8732L29.6853 34.9999L30.06 34.9858L29.9159 33.0845H29.3538L29.0223 34.0281C28.9791 34.169 28.9214 34.338 28.8782 34.507C28.8205 34.3098 28.7917 34.169 28.7484 34.0281L28.417 33.0986H27.8404L27.6963 34.9999H28.071L28.1431 33.8732C28.1575 33.6901 28.1575 33.507 28.1575 33.338H28.1719C28.2152 33.507 28.2872 33.7324 28.3161 33.8732L28.662 34.9577H29.0655L29.4114 33.9014C29.4691 33.7324 29.5267 33.507 29.57 33.338H29.5988C29.6132 33.5491 29.6132 33.732 29.6132 33.8728V33.8732Z" fill="#00AC4A"/>
</svg>
